<svg xmlns="http://www.w3.org/2000/svg" viewBox="0 0 320 310"><defs><linearGradient id="d" x2="1" y2="1"><stop stop-color="#d8e1e4"/><stop offset="1" stop-color="#8294a1"/></linearGradient></defs><g stroke="#657e94" stroke-width="4" stroke-linejoin="round"><path d="M62 236L51 281 96 247M225 245L270 281 258 233M142 249L160 291 178 249" fill="#263d51"/><path d="M53 236C53 75 267 75 267 236Z" fill="url(#d)"/><path d="M76 161C109 82 211 82 244 161Z" fill="#17487b"/><path d="M105 157L125 115M146 160L148 105M188 160L179 108M226 157L206 121M92 140H230" stroke="#6f9bbc" stroke-width="1"/><path d="M54 229H266V247H54Z" fill="#263d51"/><path d="M155 105H165V247H155Z" fill="#263d51"/><path d="M153 108L156 53Q160 46 164 53L168 108Z" fill="#263d51"/></g></svg>
